<?xml version="1.0" encoding="UTF-8"?>
<svg width="24px" height="24px" viewBox="0 0 24 24" version="1.1" xmlns="http://www.w3.org/2000/svg" xmlns:xlink="http://www.w3.org/1999/xlink">
    <!-- Generator: Sketch 64 (93537) - https://sketch.com -->
    <title>Artboard</title>
    <desc>Created with Sketch.</desc>
    <defs>
        <path d="M10.5367656,0.25105133 C10.8715007,-0.0836837768 11.4142136,-0.0836837768 11.7489487,0.25105133 C12.0836838,0.585786438 12.0836838,1.12849928 11.7489487,1.46323438 L11.7489487,1.46323438 L7.212,6 L11.7489487,10.5367656 C12.0557892,10.8436061 12.0813592,11.3252057 11.8256588,11.6611727 L11.7489487,11.7489487 C11.4142136,12.0836838 10.8715007,12.0836838 10.5367656,11.7489487 L10.5367656,11.7489487 L6,7.212 L1.46323438,11.7489487 C1.15639387,12.0557892 0.674794288,12.0813592 0.338827262,11.8256588 L0.25105133,11.7489487 C-0.0836837768,11.4142136 -0.0836837768,10.8715007 0.25105133,10.5367656 L0.25105133,10.5367656 L4.788,6 L0.25105133,1.46323438 C-0.0557891845,1.15639387 -0.0813592274,0.674794288 0.174341202,0.338827262 L0.25105133,0.25105133 C0.585786438,-0.0836837768 1.12849928,-0.0836837768 1.46323438,0.25105133 L1.46323438,0.25105133 L6,4.788 Z" id="path-1"></path>
    </defs>
    <g id="Artboard" stroke="none" stroke-width="1" fill="none" fill-rule="evenodd">
        <g id="close_x">
            <g id="x" stroke-width="1" fill-rule="evenodd" transform="translate(6.000000, 6.000000)">
                <mask id="mask-2" fill="white">
                    <use xlink:href="#path-1"></use>
                </mask>
                <use id="Combined-Shape" fill="#FFFFFF" fill-rule="nonzero" xlink:href="#path-1"></use>
            </g>
            <rect id="Rectangle" x="0" y="0" width="24" height="24"></rect>
        </g>
    </g>
</svg>