<?xml version="1.0" encoding="UTF-8"?>
<svg width="114px" height="114px" viewBox="0 0 114 114" version="1.1"
    xmlns="http://www.w3.org/2000/svg">
    <!-- Generator: Sketch 64 (93537) - https://sketch.com -->
    <title>Artboard</title>
    <desc>Created with Sketch.</desc>
    <g id="Artboard" stroke="none" stroke-width="1" fill="none" fill-rule="evenodd">
        <g id="stars" transform="translate(5.000000, 8.000000)" fill-rule="nonzero">
            <path
                d="M92.0155152,7.04222763 C91.2315208,6.8327356 90.6716555,6.14205199 90.6286593,5.33244286 L90.5408372,3.64552834 C90.4941817,2.83774895 89.9334016,2.15072459 89.150322,1.94306206 C88.3681571,1.73539953 87.5402518,2.05466932 87.0993119,2.73346019 L86.1826698,4.14593091 C85.7399005,4.82838126 84.9074211,5.14765082 84.1225117,4.9344993 L82.4978044,4.49813372 C81.7101508,4.28315269 80.8740119,4.60242248 80.4312426,5.2876171 C79.9875585,5.97281171 80.0378733,6.86566885 80.5565719,7.49597471 L81.6150103,8.80781616 C82.0111241,9.30090023 82.1291349,9.96139485 81.9278761,10.5615119 L92.7089433,7.2297644 L92.0155152,7.04222763 Z"
                id="Path" fill="#FFE165"></path>
            <path
                d="M93.6411372,7.47584895 L92.7043691,7.22427541 L81.9278761,10.5404712 C81.8857948,10.6969042 81.8226726,10.8469335 81.7412543,10.9868998 L80.8246122,12.397541 C80.3809279,13.0790763 80.4275834,13.9691892 80.9398785,14.6013246 C81.4530885,15.2325454 82.3148419,15.4612485 83.0732215,15.1666789 L84.64304,14.5629026 C85.3995902,14.2701625 86.2585993,14.4970361 86.7708944,15.1255124 L87.8302473,16.4364389 C88.3407129,17.0676595 89.198807,17.2981923 89.9571869,17.007282 C90.7146515,16.7163714 91.1995023,15.9707991 91.1574211,15.1602752 L91.0695991,13.4742754 C91.0266028,12.6637515 91.5105386,11.9181792 92.2680035,11.6272689 L93.8387368,11.0234923 C94.5870536,10.7261782 95.0627562,9.98335035 95.0179302,9.17922998 C94.9731044,8.37419485 94.4187281,7.68808548 93.6411372,7.47584895 Z"
                id="Path" fill="#FFD839"></path>
            <path
                d="M31.2865925,9.4216555 C31.8052913,8.7922644 31.8565208,7.89849227 31.4128365,7.21329766 C30.9691525,6.52810304 30.1330138,6.20883349 29.3453602,6.42472927 L21.3380049,8.57728337 C21.0928351,8.63766089 20.8376023,8.64680913 20.5887733,8.60289813 L9.91656909,28.5878951 L9.81593958,30.5501684 C9.77294356,31.3606923 10.2568794,32.1071794 11.015259,32.3980899 C11.7727239,32.6890002 12.6326478,32.4593822 13.1431133,31.8272468 L18.3593749,25.3842213 C18.87167,24.75666 19.7315939,24.5297864 20.4872293,24.8225265 L28.227459,27.7920082 C28.9858386,28.086578 29.8475923,27.8578747 30.3598874,27.2266539 C30.8730972,26.5954333 30.9197527,25.7044056 30.4751536,25.0228703 L25.9468311,18.0629756 C25.5049766,17.382355 25.5507171,16.4940721 26.0611827,15.8628513 L31.2865925,9.4216555 Z"
                id="Path" fill="#FF9811"></path>
            <path
                d="M19.2805913,7.79237424 L14.7659909,0.839798126 C14.321392,0.167410773 13.4962309,-0.144540515 12.7186403,0.0640370023 C11.9401347,0.272614052 11.3820988,0.955064403 11.3336138,1.75918478 L10.8908445,10.0400689 C10.8487632,10.8515077 10.2888979,11.5431059 9.50490351,11.7525981 L1.49754824,13.8941745 C0.71263911,14.1036665 0.151859016,14.7952649 0.109777518,15.605789 C0.0667812646,16.4172276 0.551632084,17.1637148 1.31001171,17.4537105 L9.0493267,20.4231923 C9.80679157,20.7141028 10.2916422,21.4605899 10.2486461,22.2711138 L9.91656909,28.5878951 L20.5814548,8.60289813 C20.0517785,8.53245761 19.5779054,8.23697307 19.2805913,7.79237424 Z"
                id="Path" fill="#FFAF46"></path>
            <path
                d="M66.4400981,40.2545009 L52.6108754,18.9622365 C51.7271663,17.6000806 50.0667813,16.9624562 48.4978778,17.382355 C46.928974,17.8031689 45.8101581,19.1854508 45.7259953,20.8074136 L44.3976874,46.1623609 C44.3126098,47.7824941 43.1937939,49.1647761 41.6267199,49.5846749 L17.1024225,56.1557742 C15.532604,56.5747585 14.4110436,57.9570403 14.325966,59.5790033 C14.2408885,61.200966 15.2105899,62.6939403 16.7273492,63.2748464 L40.4310597,72.3726581 C41.9469042,72.9544789 42.9166056,74.4456234 42.8315281,76.0675864 L41.6468457,98.6396735 L68.0730386,41.6166569 C67.407055,41.3330651 66.8389564,40.859192 66.4400981,40.2545009 Z"
                id="Path" fill="#FFD839"></path>
            <path
                d="M98.9589433,41.2406689 C99.9780445,39.9791424 100.070441,38.2053206 99.1876464,36.8449941 C98.3048522,35.4846677 96.6472117,34.8461286 95.0801377,35.2641979 L70.5521808,41.8343822 C69.7251902,42.0493632 68.8497145,41.972519 68.0730386,41.6166569 L41.6468457,98.6396735 L41.4977311,101.421619 C41.4117389,103.043582 42.3805255,104.535641 43.89637,105.117462 C45.4131293,105.698368 47.1311475,105.238217 48.1520785,103.975776 L64.1292813,84.2450965 C65.1511269,82.98357 66.8691452,82.5234192 68.3840749,83.1043253 L92.0887002,92.2039667 C93.60363,92.7885319 95.3234778,92.3302108 96.3462384,91.0686841 C97.3689988,89.8071574 97.4632246,88.0305913 96.5795155,86.6675204 L82.7484632,65.371597 C81.8647541,64.0103557 81.9580651,62.2337895 82.9789958,60.9722628 L98.9589433,41.2406689 Z"
                id="Path" fill="#FFCD00"></path>
        </g>
    </g>
</svg>